<?xml version="1.0" encoding="UTF-8"?><svg id="uuid-1105cafb-fe4e-4902-8c57-ec8e664e1e21" xmlns="http://www.w3.org/2000/svg" viewBox="0 0 586 100"><defs><style>.uuid-9da07cb7-3c07-42bf-8472-7345a84c0c57{fill:#fff;stroke-width:0px;}</style></defs><path class="uuid-9da07cb7-3c07-42bf-8472-7345a84c0c57" d="M3.6459,3.6459v92.70827h92.71123V3.6459H3.6459ZM50.07975,82.28505c-17.53325,0-32.32483-13.92984-32.32483-32.16836s14.76036-32.40148,32.32483-32.40148c10.18142,0,20.05288,4.76939,26.5485,14.47588l-7.21512,4.85473c-4.542-5.63389-11.66329-9.93981-19.33338-9.93981-12.52206,0-22.93402,9.62688-22.93402,23.01068,0,12.83775,9.92559,22.77756,22.69795,22.77756,9.27721,0,17.29994-5.08785,21.28997-12.83775l-21.91562-7.04167v-2.89794h33.0301c0,17.9256-15.96604,32.16836-32.16836,32.16836v-.0002Z"/><path class="uuid-9da07cb7-3c07-42bf-8472-7345a84c0c57" d="M368.79057,21.84511l-.2981-.76553h-10.36437l-.30069.76-21.96798,55.51468-.65115,1.64465h9.02652l.29337-.77758,5.78224-15.3226,25.5226-.00079,5.77851,15.3228.29319.77837h9.17034l-.63928-1.63932-21.64517-55.51449-.00003-.0002ZM373.09175,55.6597l-19.97703.00079,10.08897-26.75613-.28903-.00059,10.17708,26.75593Z"/><path class="uuid-9da07cb7-3c07-42bf-8472-7345a84c0c57" d="M155.49578,53.98404c3.168-1.14385,5.75933-2.98763,7.71652-5.49402,2.24916-2.87957,3.38965-6.31783,3.38965-10.21915,0-5.0752-1.77464-9.26812-5.27375-12.46259-3.47421-3.15378-8.0575-4.7518-13.62422-4.7518h-25.38786v57.91933h8.51405v-23.71654h16.04269l10.93272,23.02984.32636.6867h9.41964l-.8317-1.72486-11.22412-23.26671.00003-.0002ZM130.82108,28.80697h16.40402c3.32525,0,6.00352.93068,7.95971,2.67628,1.92123,1.70708,2.89418,4.01887,2.89418,6.87315,0,2.83591-.94689,5.0592-2.89418,6.7965-1.95659,1.746-4.63426,2.63144-7.95971,2.63144h-16.40402v-18.97738Z"/><path class="uuid-9da07cb7-3c07-42bf-8472-7345a84c0c57" d="M468.67148,34.42071c1.83134-1.9392,4.04772-3.48883,6.59123-4.60877,2.56606-1.13278,5.25893-1.68317,8.23511-1.68317,3.00029,0,5.95609.65588,8.7841,1.94948,2.84716,1.30406,5.26722,3.1192,7.19102,5.39504l.86096,1.01801.92378-.96111,4.04022-4.20141.77125-.80188-.73966-.83112c-2.69092-3.02319-5.97942-5.39307-9.77426-7.04424-3.72729-1.62154-7.89689-2.47873-12.05741-2.47873-4.11588,0-8.01147.77936-11.57832,2.31654-3.56312,1.53797-6.70385,3.66742-9.33647,6.32988s-4.73303,5.86029-6.24355,9.50499c-1.50874,3.65991-2.27287,7.59068-2.27287,11.686,0,4.09256.76474,8.00851,2.27347,11.63977,1.50262,3.60559,3.58742,6.7886,6.19691,9.46153,2.60458,2.66088,5.74709,4.80416,9.3422,6.37077,3.61289,1.56404,7.52134,2.35644,11.61884,2.35644,4.1135,0,8.09168-.83467,11.82527-2.4811,3.72412-1.64228,7.03415-4.00544,9.83729-7.0233l.78114-.84079-.80387-.81946-3.96374-4.0406-.93364-.95182-.85068,1.0265c-1.88705,2.27683-4.2506,4.05878-7.02547,5.29627-2.78376,1.24658-5.71192,1.87836-8.7047,1.87836h-.67406c-2.74542-.07883-5.32905-.64107-7.68886-1.67428-2.55617-1.11796-4.78479-2.66798-6.62403-4.607-1.84358-1.9392-3.3207-4.27905-4.39125-6.95494-1.07884-2.67589-1.62509-5.58035-1.62509-8.63574s.54625-5.95986,1.62371-8.63278c1.07194-2.67964,2.54906-5.0191,4.39167-6.95692l-.00024-.0004Z"/><polygon class="uuid-9da07cb7-3c07-42bf-8472-7345a84c0c57" points="562.44337 21.05647 556.33457 21.05647 555.13223 21.05647 555.13223 22.25879 555.13223 45.87715 525.30766 45.87715 525.30766 22.25879 525.30766 21.05647 524.10537 21.05647 517.99615 21.05647 516.7938 21.05647 516.7938 22.25879 516.7938 77.77348 516.7938 78.9758 517.99615 78.9758 524.10537 78.9758 525.30766 78.9758 525.30766 77.77348 525.30766 53.75823 555.13223 53.75823 555.13223 77.77348 555.13223 78.9758 556.33457 78.9758 562.44337 78.9758 563.6459 78.9758 563.6459 77.77348 563.6459 22.25879 563.6459 21.05647 562.44337 21.05647"/><path class="uuid-9da07cb7-3c07-42bf-8472-7345a84c0c57" d="M271.14301,51.18606c-2.85704-2.51686-7.37593-4.34563-13.4308-5.43594l-8.89731-1.51288c-3.47737-.55039-5.97389-1.44848-7.43224-2.67214-1.36175-1.1476-2.02456-2.71501-2.02456-4.79013,0-2.48604,1.06661-4.52244,3.26125-6.22557,2.2551-1.75627,5.20855-2.64606,8.77937-2.64606,3.06191,0,6.16827.56343,9.23316,1.67468,3.07258,1.11599,6.02563,2.7158,8.7766,4.75457l1.01563.75288.70074-1.05198,3.17076-4.75872.64778-.97217-.95242-.67524c-3.49219-2.47675-7.12524-4.33279-10.79839-5.51654-3.63107-1.17249-7.62486-1.76713-11.86953-1.76713-5.87391,0-10.7488,1.58736-14.48991,4.71743-3.81065,3.1925-5.74235,7.3461-5.74235,12.34623,0,4.03567,1.31592,7.30817,3.912,9.72606,2.51745,2.34617,6.47192,4.008,11.75318,4.94027l8.96625,1.51209c4.26977.75387,7.30364,1.81969,9.00835,3.16622,1.58814,1.25704,2.3602,3.02398,2.3602,5.40097,0,2.80154-1.2211,5.09535-3.73301,7.01224-2.57236,1.96666-5.90255,2.96372-9.89832,2.96372-3.40427,0-6.53197-.63139-9.29617-1.87698-2.78632-1.25665-5.83777-3.42581-9.06957-6.44762l-.92634-.86608-.81591.97138-3.72551,4.43729-.09957.11794-.06579.13908-.37673.79319.63179.61894c3.48566,3.26559,7.19517,5.73266,11.02696,7.33247,3.8636,1.61502,8.08851,2.43408,12.55564,2.43408,3.14982,0,6.10268-.44569,8.7778-1.32501,2.71717-.89196,5.09694-2.134,7.07309-3.69172,1.99907-1.57847,3.58799-3.4993,4.72314-5.70995,1.14088-2.23218,1.71872-4.65875,1.71872-7.21512,0-4.4697-1.4965-8.05473-4.44756-10.65476h-.00042Z"/><path class="uuid-9da07cb7-3c07-42bf-8472-7345a84c0c57" d="M434.56529,53.98483c3.16524-1.14187,5.75656-2.98546,7.71614-5.49442,2.24918-2.87977,3.38967-6.31822,3.38967-10.21935,0-5.075-1.77404-9.26812-5.27334-12.4622-3.47519-3.15397-8.0581-4.7522-13.62421-4.7522h-25.38807v57.91933h8.51425v-23.71654h16.04189l10.93293,23.02984.32616.6867h9.42003l-.83172-1.72486-11.22391-23.26612.00018-.0002ZM409.8902,28.85241h16.40423c3.32546,0,6.0035.88525,7.95971,2.63085,1.92102,1.70708,2.89418,4.01887,2.89418,6.87315,0,2.83571-.94687,5.05861-2.89418,6.7969-1.95659,1.7456-4.63425,2.63105-7.95971,2.63105h-16.40423v-18.93194Z"/><polygon class="uuid-9da07cb7-3c07-42bf-8472-7345a84c0c57" points="189.09009 71.25513 189.09009 53.59742 216.03055 53.59742 217.23306 53.59742 217.23306 52.3949 217.23306 47.07967 217.23306 45.87715 216.03055 45.87715 189.09009 45.87715 189.09009 28.77655 217.61059 28.77655 218.81312 28.77655 218.81312 27.57402 218.81312 22.25879 218.81312 21.05647 217.61059 21.05647 181.77896 21.05647 180.57643 21.05647 180.57643 22.25879 180.57643 77.77348 180.57643 78.9758 181.77896 78.9758 217.9332 78.9758 219.13573 78.9758 219.13573 77.77348 219.13573 72.45765 219.13573 71.25513 217.9332 71.25513 189.09009 71.25513"/><polygon class="uuid-9da07cb7-3c07-42bf-8472-7345a84c0c57" points="296.31494 71.25513 296.31494 53.59742 323.2554 53.59742 324.4579 53.59742 324.4579 52.3949 324.4579 47.07967 324.4579 45.87715 323.2554 45.87715 296.31494 45.87715 296.31494 28.77655 324.83543 28.77655 326.03795 28.77655 326.03795 27.57402 326.03795 22.25879 326.03795 21.05647 324.83543 21.05647 289.0038 21.05647 287.80127 21.05647 287.80127 22.25879 287.80127 77.77348 287.80127 78.9758 289.0038 78.9758 325.15825 78.9758 326.36056 78.9758 326.36056 77.77348 326.36056 72.45765 326.36056 71.25513 325.15825 71.25513 296.31494 71.25513"/></svg>
