<?xml version="1.0" encoding="UTF-8"?><svg id="uuid-d881c678-f64b-44bb-afbc-babcc2466084" xmlns="http://www.w3.org/2000/svg" viewBox="0 0 670 800"><defs><style>.uuid-bb01d728-8a24-460f-890c-62165429ab2f{fill:#000;stroke-width:0px;}</style></defs><path class="uuid-bb01d728-8a24-460f-890c-62165429ab2f" d="M59.57042,60v550.84249h550.85916V60H59.57042ZM335.46462,527.24791c-104.1769,0-192.06316-82.76657-192.06316-191.13393s87.701-192.51943,192.06316-192.51943c60.49495,0,119.14756,28.33781,157.74318,86.01114l-42.87004,28.8447c-26.98686-33.47535-69.29877-59.05883-114.87313-59.05883-74.40236,0-136.26615,57.19979-136.26615,136.72183,0,76.27811,58.97426,135.33631,134.86338,135.33631,55.12153,0,102.79082-30.23082,126.49855-76.27811l-130.21606-41.83958v-17.21927h196.25358c0,106.50829-94.86559,191.13393-191.13334,191.13393l.00005.00123Z"/><path class="uuid-bb01d728-8a24-460f-890c-62165429ab2f" d="M367.21672,667.61458l-.37408-.96139h-12.94245l-.37408.96139-27.41632,69.28748-.81903,2.04725h11.26924l.37408-.96139,7.20983-19.13786h31.86707l7.20983,19.13786.3562.96139h11.44734l-.80115-2.04725s-27.00652-69.28748-27.00647-69.28748ZM347.65176,709.82467h0l12.40813-32.93507-.1781-.4634h.3562l-.1781.4634,12.51536,32.93507h-24.9235Z"/><path class="uuid-bb01d728-8a24-460f-890c-62165429ab2f" d="M510.39012,675.45699c3.7449,0,7.4344.81842,10.96425,2.43326,3.55371,1.62793,6.57426,3.89323,8.97535,6.73391l1.07455,1.27055,1.15321-1.19966,5.04286-5.24418.96257-1.00129-.92326-1.03706c-3.35889-3.77348-7.46358-6.7315-12.20027-8.79248-4.65207-2.02403-9.85635-3.09385-15.0499-3.09385-5.13756,0-9.99991.97271-14.45184,2.8919-4.44716,1.91983-8.3678,4.57763-11.65402,7.9008-3.28622,3.32317-5.90772,7.31465-7.79296,11.8637-1.88288,4.56809-2.83713,9.47452-2.83713,14.58645,0,5.10834.95426,9.99632,2.83773,14.52869,1.87574,4.50079,4.47756,8.47382,7.73461,11.80949,3.25109,3.3214,7.1735,5.99647,11.66061,7.95143,4.50915,1.95255,9.38817,2.94134,14.50247,2.94134,5.13456,0,10.09998-1.04178,14.76037-3.09681,4.64853-2.04966,8.77939-4.99996,12.27889-8.7663l.97507-1.04955-1.00311-1.02274-4.94751-5.04345-1.16512-1.18775-1.06205,1.28128c-2.35583,2.84186-5.30553,5.06608-8.76926,6.61062-3.47446,1.55586-7.12942,2.34451-10.86478,2.34451h-.84164c-3.42683-.0983-6.6517-.80056-9.59722-2.09015-3.19033-1.39562-5.97207-3.3303-8.26773-5.75048-2.30161-2.42077-4.14459-5.34125-5.48122-8.6811-1.34676-3.33985-2.02821-6.96564-2.02821-10.77902s.68204-7.43917,2.02644-10.77543c1.33786-3.34462,3.18143-6.26451,5.48122-8.6835h-.00059c2.28552-2.42018,5.05235-4.35427,8.22724-5.75225,3.20283-1.41407,6.56413-2.10088,10.27867-2.10088h.00173Z"/><polygon class="uuid-bb01d728-8a24-460f-890c-62165429ab2f" points="601.30353 666.62938 599.80307 666.62938 599.80307 668.12984 599.80307 697.61008 562.57685 697.61008 562.57685 668.12984 562.57685 666.62938 561.0758 666.62938 553.45017 666.62938 551.94971 666.62938 551.94971 668.12984 551.94971 737.42204 551.94971 738.92309 553.45017 738.92309 561.0758 738.92309 562.57685 738.92309 562.57685 737.42204 562.57685 707.4468 599.80307 707.4468 599.80307 737.42204 599.80307 738.92309 601.30353 738.92309 608.92853 738.92309 610.42958 738.92309 610.42958 737.42204 610.42958 668.12984 610.42958 666.62938 608.92853 666.62938 601.30353 666.62938"/><path class="uuid-bb01d728-8a24-460f-890c-62165429ab2f" d="M245.33332,704.2362h0c-3.5662-3.14148-9.20649-5.42405-16.76418-6.78454l-11.10544-1.88824c-4.34056-.68681-7.45644-1.8078-9.27677-3.33508-1.69941-1.43256-2.52678-3.3887-2.52678-5.97861,0-3.10276,1.33129-5.64505,4.07013-7.77097,2.81508-2.192,6.50101-3.3029,10.95831-3.3029,3.82174,0,7.69887.70349,11.52477,2.09015,3.83544,1.39266,7.52136,3.38988,10.95473,5.93453l1.26755.93935.87442-1.31282,3.95755-5.9399.8083-1.21334-1.18893-.84287c-4.35902-3.09144-8.89376-5.40796-13.47854-6.88579-4.53176-1.46351-9.51741-2.20572-14.81519-2.20572-7.33195,0-13.41658,1.98177-18.08595,5.88809-4.75632,3.98494-7.16755,9.16895-7.16755,15.41023,0,5.03749,1.64283,9.12191,4.8826,12.1401,3.14209,2.92825,8.0783,5.00291,14.66986,6.16626l11.19121,1.88706c5.32934.94053,9.11654,2.27125,11.24422,3.95217,1.98235,1.56894,2.94612,3.77467,2.94612,6.74105,0,3.4965-1.52369,6.35985-4.65923,8.75258-3.21059,2.45471-7.36769,3.69905-12.35453,3.69905-4.24942,0-8.15335-.78806-11.60341-2.34274-3.47805-1.56835-7.28668-4.27624-11.32046-8.04791l-1.15617-1.08114-1.01857,1.21275-4.6497,5.53843-.1245.14711-.0822.17333-.47057.98997.78805.77198c4.35068,4.0761,8.98073,7.15564,13.76385,9.15227,4.82245,2.01572,10.0958,3.03846,15.67175,3.03846,3.93193,0,7.61727-.55634,10.95652-1.65415,3.39168-1.11327,6.36222-2.66376,8.82823-4.6074,2.49521-1.97045,4.47875-4.36795,5.89522-7.12706,1.42423-2.78646,2.14555-5.81479,2.14555-9.00575,0-5.57893-1.86798-10.05349-5.55093-13.29922l.00064.00123Z"/><path class="uuid-bb01d728-8a24-460f-890c-62165429ab2f" d="M463.31473,736.77754l-13.99258-29.05438c3.93431-1.42361,7.17409-3.7205,9.63117-6.85425,2.79483-3.59598,4.21903-7.8859,4.21903-12.74588,0-6.33781-2.20749-11.57185-6.58676-15.55975-4.32628-3.93431-10.05826-5.92799-17.00186-5.92799h-31.68838v72.29671h10.62832v-29.60595h20.02779l13.63699,28.73331.40923.87264h11.76781l-1.05073-2.15391h0l-.00005-.00055ZM438.99701,699.99749h-20.49122v-23.64224h20.49122c4.14757,0,7.49514,1.10436,9.93317,3.29399,2.38559,2.11815,3.61384,5.00291,3.61384,8.58043,0,3.52572-1.19252,6.30205-3.61384,8.47441-2.43863,2.18963-5.7862,3.2934-9.93317,3.2934Z"/><polygon class="uuid-bb01d728-8a24-460f-890c-62165429ab2f" points="142.91599 729.28656 142.91599 707.24666 176.54264 707.24666 178.04369 707.24666 178.04369 705.74557 178.04369 699.11113 178.04369 697.61008 176.54264 697.61008 142.91599 697.61008 142.91599 676.26532 178.51486 676.26532 180.01591 676.26532 180.01591 674.76427 180.01591 668.12984 180.01591 666.62938 178.51486 666.62938 133.79052 666.62938 132.28946 666.62938 132.28946 668.12984 132.28946 737.42204 132.28946 738.92309 133.79052 738.92309 178.91752 738.92309 180.41858 738.92309 180.41858 737.42204 180.41858 730.78702 180.41858 729.28656 178.91752 729.28656 142.91599 729.28656"/><polygon class="uuid-bb01d728-8a24-460f-890c-62165429ab2f" points="276.75246 729.28656 276.75246 707.24666 310.3785 707.24666 311.87955 707.24666 311.87955 705.74557 311.87955 699.11113 311.87955 697.61008 310.3785 697.61008 276.75246 697.61008 276.75246 676.26532 312.35073 676.26532 313.85178 676.26532 313.85178 674.76427 313.85178 668.12984 313.85178 666.62938 312.35073 666.62938 267.62639 666.62938 266.12534 666.62938 266.12534 668.12984 266.12534 737.42204 266.12534 738.92309 267.62639 738.92309 312.75398 738.92309 314.25444 738.92309 314.25444 737.42204 314.25444 730.78702 314.25444 729.28656 312.75398 729.28656 276.75246 729.28656"/><path class="uuid-bb01d728-8a24-460f-890c-62165429ab2f" d="M114.98979,736.77754l-13.99259-29.05438c3.93432-1.42361,7.1741-3.7205,9.63119-6.85425,2.79483-3.59598,4.21904-7.8859,4.21904-12.74588,0-6.33781-2.2075-11.57185-6.58678-15.55975-4.32626-3.93431-10.05827-5.92799-17.00125-5.92799h-31.68898v72.29671h10.62831v-29.60595h20.02779l13.63638,28.73331.40922.87264h11.76781l-1.05074-2.15391h0l.0006-.00055ZM90.67148,699.99749h-20.49121v-23.64224h20.49061c4.14816,0,7.49516,1.10436,9.93378,3.29399,2.38561,2.11815,3.61385,5.00291,3.61385,8.58043,0,3.52572-1.1931,6.30205-3.61385,8.47441-2.43862,2.18963-5.78622,3.2934-9.93378,3.2934h.00059Z"/></svg>
