<svg xmlns="http://www.w3.org/2000/svg" viewBox="0 0 400 400"><title>logo</title><path d="M172.1809,192.201c-.804-3.21608-2.17085-3.61809-3.45729-3.61809h-.402v13.10553h-8.201V168.24121h12.2211c6.19095,0,9.64824,2.81407,9.64824,9.005a7.433,7.433,0,0,1-5.86935,7.63819v.1608c1.76884.64322,2.89448,1.52763,4.10051,6.19095l2.73366,10.45226h-8.52261Zm-1.84924-10.05025a3.45629,3.45629,0,0,0,3.37689-3.61809c0-2.33166-1.12563-3.9397-3.53769-3.9397H167.9196v7.47739h2.41206Z" style="fill:#fff"/><path d="M186.33166,168.24121h18.73367v6.593H194.37186v6.43216h10.13066v6.593H194.37186v7.15578h11.25628v6.593H186.33166Z" style="fill:#fff"/><path d="M209.48744,193.64825a15.04679,15.04679,0,0,0,6.91458,2.01005c3.13567,0,4.1809-1.44724,4.1809-3.61809s-1.36683-2.81407-3.6985-3.8593l-1.76884-.72362c-5.06533-2.17085-6.593-5.14572-6.593-9.88945,0-6.35175,4.66332-9.88945,11.09548-9.88945a19.1397,19.1397,0,0,1,7.7186,1.36684l-.32161,6.593a14.08545,14.08545,0,0,0-6.27136-1.68845c-2.49246,0-3.93969,1.12562-3.93969,3.13567,0,1.68845.804,2.49247,3.53768,3.8593l3.6985,1.84925c2.73366,1.36683,5.14572,3.45729,5.14572,8.44221,0,7.31659-4.82412,11.01508-11.97989,11.01508a29.63164,29.63164,0,0,1-8.12061-1.28644Z" style="fill:#fff"/><path d="M233.36683,168.24121h18.73366v6.593H241.407v6.43216h10.13065v6.593H241.407v7.15578h11.25628v6.593H233.36681V168.24121Z" style="fill:#fff"/><path d="M272.68341,194.53266h-9.005l-2.01,7.07538h-7.87939L263.9196,168.1608H273.005l9.72864,33.44724h-8.52261ZM268.42212,174.995h-.08041l-3.29649,13.10553h6.03015Z" style="fill:#fff"/><path d="M297.36684,192.201c-.804-3.21608-2.17087-3.61809-3.45728-3.61809h-.48241v13.10553h-8.201V168.24121h12.22112c6.191,0,9.64824,2.81407,9.64824,9.005a7.433,7.433,0,0,1-5.86934,7.63819v.1608c1.76885.64322,2.89448,1.52763,4.10051,6.19095l2.73366,10.45226h-8.36183Zm-1.84926-10.05025a3.45628,3.45628,0,0,0,3.37689-3.61809c0-2.33166-1.12562-3.9397-3.53768-3.9397h-2.25125v7.47739h2.412Z" style="fill:#fff"/><path d="M333.46734,200.96482a23.687,23.687,0,0,1-7.55779,1.28644c-8.92463,0-15.27638-5.78894-15.27638-17.52764,0-9.88945,5.14572-17.04523,15.196-17.04523a17.68387,17.68387,0,0,1,7.397,1.52764l-.402,7.397a11.68914,11.68914,0,0,0-5.94974-1.92964c-5.22613,0-7.7186,3.69849-7.7186,10.21105,0,5.78894,2.89448,10.13066,8.0402,10.13066a10.29272,10.29272,0,0,0,5.86934-1.84925Z" style="fill:#fff"/><path d="M351.799,188.02011h-6.43217V201.608h-8.201V168.1608h8.201v12.86432H351.799V168.1608H360V201.608h-8.201Z" style="fill:#fff"/><path d="M159.9598,220.0201l147.77889,32.804A119.96649,119.96649,0,1,1,263.11558,97.96985l21.06533-34.01A159.99127,159.99127,0,1,0,200,360c81.608,0,148.82413-61.10553,158.71356-139.9799Z" style="fill:#fff"/></svg>