<svg xmlns="http://www.w3.org/2000/svg" viewBox="0 0 400 400"><title>logo</title><path d="M172.13511,192.18105c-.83962-3.25354-2.204-3.56838-3.46343-3.56838h-.4198v13.11906h-8.1863V168.2519h12.17449c6.19219,0,9.65562,2.83371,9.65562,9.02592a7.47893,7.47893,0,0,1-5.87734,7.66153v.2099c1.78419.62972,2.93867,1.57429,4.09314,6.19219l2.72877,10.49524H174.3391ZM170.246,182.1056a3.43239,3.43239,0,0,0,3.35847-3.56837c0-2.30895-1.15448-3.9882-3.56838-3.9882h-2.204v7.45163l2.41391.10494Z" style="fill:#00a8e2"/><path d="M186.30369,168.14692h18.78649v6.612H194.385V181.161h10.18038v6.612H194.385v7.13677h11.22991v6.612H186.30369Z" style="fill:#00a8e2"/><path d="M209.39323,193.54541a15.1332,15.1332,0,0,0,6.92687,1.99409c3.14857,0,4.1981-1.46932,4.1981-3.56837,0-2.204-1.36437-2.83372-3.67334-3.88324l-1.7842-.73466c-5.03771-2.204-6.612-5.14267-6.612-9.86553,0-6.4021,4.6179-9.86552,11.125-9.86552a19.00832,19.00832,0,0,1,7.76648,1.36438l-.31485,6.612a13.90737,13.90737,0,0,0-6.29714-1.67924c-2.51886,0-3.98818,1.15448-3.98818,3.14857,0,1.67924.8396,2.51885,3.56837,3.88324l3.67334,1.88914c2.72877,1.36439,5.14266,3.46344,5.14266,8.3962,0,7.34667-4.82782,11.02-11.96457,11.02a28.60862,28.60862,0,0,1-8.08135-1.25943Z" style="fill:#00a8e2"/><path d="M233.32238,168.14692h18.78648v6.612H241.4037V181.161h10.1804v6.612H241.4037v7.13677h11.22992v6.612H233.32238v-33.3749Z" style="fill:#00a8e2"/><path d="M272.67955,194.49h-9.02592l-1.99409,7.03181h-7.87143l10.1804-33.47983h9.13087L282.86,201.52181h-8.50116Zm-4.303-19.52117h0L265.018,188.08789h5.9823Z" style="fill:#00a8e2"/><path d="M297.34337,192.18105c-.8396-3.25354-2.204-3.56838-3.46341-3.56838h-.52477v13.11906h-8.18627V168.2519h12.17449c6.19218,0,9.65563,2.83371,9.65563,9.02592a7.47893,7.47893,0,0,1-5.87734,7.66153v.2099c1.78421.62972,2.93866,1.57429,4.09314,6.19219l2.72877,10.49524h-8.3962Zm-1.88913-10.07545a3.43239,3.43239,0,0,0,3.35849-3.56837c0-2.30895-1.15448-3.9882-3.56837-3.9882h-2.204v7.45163l2.41389.10494Z" style="fill:#00a8e2"/><path d="M333.447,200.89209a25.29305,25.29305,0,0,1-7.55659,1.25942c-8.921,0-15.32306-5.77238-15.32306-17.52705,0-9.86553,5.14266-17.0023,15.2181-17.0023a16.43378,16.43378,0,0,1,7.45164,1.57429l-.41981,7.45163a11.74138,11.74138,0,0,0-5.9823-1.88915c-5.24762,0-7.76648,3.67334-7.76648,10.18039,0,5.77238,2.93866,10.18038,8.08136,10.18038a9.99356,9.99356,0,0,0,5.87734-1.88915Z" style="fill:#00a8e2"/><path d="M351.81372,187.98295h-6.4021v13.64382h-8.18628V168.14694h8.18628V181.0561h6.4021V168.14694H360v33.47983h-8.18628Z" style="fill:#00a8e2"/><path d="M160.4854,219.99345l147.878,32.8501A120.00075,120.00075,0,1,1,263.75862,97.93374l21.09545-34.00459A160.01187,160.01187,0,1,0,200.57723,360c81.653,0,148.82257-61.08234,158.79305-140.00656Z" style="fill:#00a8e2"/></svg>