<?xml version="1.0" encoding="UTF-8"?><svg id="uuid-93b91654-731f-428b-ab22-1b3340c98ae9" xmlns="http://www.w3.org/2000/svg" viewBox="0 0 800 800"><defs><style>.uuid-3ae07681-cfaa-469d-9911-6b045ad5821c{fill:#000;stroke-width:0px;}</style></defs><g id="uuid-588d2437-57c1-4f06-9d2f-a0b6e9efbb2c"><path class="uuid-3ae07681-cfaa-469d-9911-6b045ad5821c" d="M165.07477,110v469.83624h469.85046V110H165.07477ZM400.3963,508.53498c-88.85677,0-163.81858-70.59502-163.81858-163.026s74.8038-164.20775,163.81858-164.20775c51.59863,0,101.62586,24.17048,134.54565,73.36244l-36.56562,24.60283c-23.01821-28.5525-59.10777-50.37371-97.98003-50.37371-63.46084,0-116.22701,48.78805-116.22701,116.61568,0,65.06074,50.30157,115.43391,115.03053,115.43391,47.01542,0,87.67452-25.78511,107.89582-65.06074l-111.06664-35.6867v-14.68702h167.39276c0,90.84531-80.91477,163.026-163.02549,163.026l.00004.00105Z"/><path class="uuid-3ae07681-cfaa-469d-9911-6b045ad5821c" d="M427.47896,628.25949l-.31907-.82001h-11.03915l-.31907.82001-23.38451,59.09814-.69859,1.74619h9.612l.31907-.82001,6.14956-16.32347h27.18074l6.14956,16.32347.30382.82001h9.7639l-.68333-1.74619s-23.03497-59.09814-23.03493-59.09814ZM410.79121,664.26222h0l10.58341-28.09168-.15191-.39526h.30382l-.15191.39526,10.67487,28.09168h-21.25828Z"/><path class="uuid-3ae07681-cfaa-469d-9911-6b045ad5821c" d="M549.59745,634.94861c3.19418,0,6.34111.69806,9.35186,2.07543,3.03111,1.38853,5.60746,3.3207,7.65545,5.74363l.91653,1.08371.98362-1.02324,4.30126-4.47297.82102-.85404-.78749-.88455c-2.86493-3.21856-6.36599-5.74158-10.40611-7.49947-3.96794-1.72638-8.40689-2.63888-12.83668-2.63888-4.38204,0-8.52934.82966-12.32657,2.46662-3.79317,1.6375-7.13724,3.90445-9.94019,6.73892-2.80295,2.83447-5.03894,6.23897-6.64694,10.11904-1.60599,3.89631-2.41991,8.08121-2.41991,12.44139,0,4.35711.81392,8.52627,2.42041,12.39212,1.5999,3.83891,3.8191,7.22767,6.59717,10.0728,2.77299,2.83296,6.11857,5.11464,9.94581,6.7821,3.84604,1.66541,8.00756,2.50879,12.36975,2.50879,4.37948,0,8.61469-.88858,12.58973-2.64139,3.96492-1.74824,7.48831-4.26467,10.47317-7.47714l.83168-.89521-.85559-.87234-4.21994-4.30176-.99378-1.01308-.90587,1.09285c-2.00938,2.42394-4.5253,4.32107-7.47966,5.63847-2.96351,1.32705-6.08098,1.99973-9.26701,1.99973h-.71787c-2.92288-.08384-5.67351-.68283-8.18587-1.78278-2.72117-1.19038-5.09382-2.84055-7.05188-4.90482-1.96314-2.06477-3.53509-4.55577-4.67516-7.40446-1.14871-2.84869-1.72995-5.94128-1.72995-9.19387s.58174-6.34518,1.72843-9.19081c1.14111-2.85276,2.71357-5.34326,4.67516-7.40652h-.0005c1.94942-2.06427,4.30936-3.71394,7.01735-4.90633,2.73183-1.20612,5.59882-1.79193,8.7671-1.79193h.00147Z"/><polygon class="uuid-3ae07681-cfaa-469d-9911-6b045ad5821c" points="627.14125 627.41917 625.86144 627.41917 625.86144 628.69898 625.86144 653.8439 594.10967 653.8439 594.10967 628.69898 594.10967 627.41917 592.82936 627.41917 586.32514 627.41917 585.04534 627.41917 585.04534 628.69898 585.04534 687.80115 585.04534 689.08146 586.32514 689.08146 592.82936 689.08146 594.10967 689.08146 594.10967 687.80115 594.10967 662.23404 625.86144 662.23404 625.86144 687.80115 625.86144 689.08146 627.14125 689.08146 633.64492 689.08146 634.92523 689.08146 634.92523 687.80115 634.92523 628.69898 634.92523 627.41917 633.64492 627.41917 627.14125 627.41917"/><path class="uuid-3ae07681-cfaa-469d-9911-6b045ad5821c" d="M323.5196,659.49558h0c-3.04176-2.6795-7.85259-4.62639-14.29886-5.78681l-9.47229-1.61056c-3.70224-.58581-6.35991-1.54195-7.91254-2.84462-1.44949-1.22189-2.15519-2.89036-2.15519-5.09941,0-2.64647,1.13551-4.81489,3.47158-6.62818,2.4011-1.86964,5.54498-2.81718,9.3468-2.81718,3.25972,0,6.56668.60004,9.82995,1.78278,3.2714,1.18786,6.41528,2.89137,9.34374,5.06181l1.08115.80121.74583-1.11976,3.37556-5.06638.68943-1.03491-1.01409-.71892c-3.71799-2.63682-7.58585-4.61267-11.4964-5.87317-3.86532-1.24829-8.11779-1.88135-12.63648-1.88135-6.25372,0-11.44356,1.69033-15.42625,5.02219-4.05686,3.39892-6.1135,7.82057-6.1135,13.14402,0,4.29669,1.40123,7.78045,4.16457,10.35479,2.68002,2.49763,6.89032,4.26719,12.51252,5.25945l9.54544,1.60955c4.54561.80222,7.77587,1.93724,9.59066,3.37097,1.69083,1.33822,2.51287,3.21957,2.51287,5.74972,0,2.98231-1.29962,5.42458-3.97405,7.46544-2.73844,2.09373-6.2842,3.15507-10.53769,3.15507-3.6245,0-6.95433-.67217-9.89702-1.99822-2.96657-1.33771-6.21511-3.64738-9.65569-6.86439l-.98614-.92215-.86878,1.0344-3.96592,4.72396-.10619.12547-.07011.14784-.40137.84439.67216.65845c3.71088,3.47668,7.66003,6.10334,11.73976,7.80635,4.11326,1.71929,8.61112,2.59162,13.36708,2.59162,3.3537,0,6.49708-.47452,9.34526-1.4109,2.8929-.94955,5.4266-2.27203,7.52997-3.92984,2.12826-1.68068,3.82011-3.72561,5.02828-6.07896,1.21478-2.37669,1.83003-4.95967,1.83003-7.68138,0-4.7585-1.59328-8.57504-4.73462-11.34345l.00054.00105Z"/><path class="uuid-3ae07681-cfaa-469d-9911-6b045ad5821c" d="M509.44491,687.25143l-11.93484-24.78168c3.35574-1.21426,6.11908-3.17336,8.21482-5.84627,2.38382-3.06716,3.59858-6.72621,3.59858-10.87149,0-5.40578-1.88286-9.87011-5.61812-13.27155-3.69006-3.35574-8.57911-5.05623-14.50158-5.05623h-27.02832v61.66484h9.06534v-25.25213h17.08253l11.63155,24.50783.34905.74431h10.03725l-.89622-1.83716h0l-.00004-.00047ZM488.70333,655.88022h-17.4778v-20.16544h17.4778c3.53763,0,6.39291.94195,8.47241,2.80958,2.03477,1.80666,3.08239,4.26719,3.08239,7.31861,0,3.00723-1.01715,5.37528-3.08239,7.22817-2.08001,1.86763-4.93529,2.80908-8.47241,2.80908Z"/><polygon class="uuid-3ae07681-cfaa-469d-9911-6b045ad5821c" points="236.16364 680.86206 236.16364 662.06333 264.84519 662.06333 266.1255 662.06333 266.1255 660.78298 266.1255 655.1242 266.1255 653.8439 264.84519 653.8439 236.16364 653.8439 236.16364 635.63806 266.52738 635.63806 267.80769 635.63806 267.80769 634.35776 267.80769 628.69898 267.80769 627.41917 266.52738 627.41917 228.38015 627.41917 227.09984 627.41917 227.09984 628.69898 227.09984 687.80115 227.09984 689.08146 228.38015 689.08146 266.87082 689.08146 268.15114 689.08146 268.15114 687.80115 268.15114 682.14187 268.15114 680.86206 266.87082 680.86206 236.16364 680.86206"/><polygon class="uuid-3ae07681-cfaa-469d-9911-6b045ad5821c" points="350.31827 680.86206 350.31827 662.06333 378.99931 662.06333 380.27962 662.06333 380.27962 660.78298 380.27962 655.1242 380.27962 653.8439 378.99931 653.8439 350.31827 653.8439 350.31827 635.63806 380.6815 635.63806 381.96181 635.63806 381.96181 634.35776 381.96181 628.69898 381.96181 627.41917 380.6815 627.41917 342.53427 627.41917 341.25397 627.41917 341.25397 628.69898 341.25397 687.80115 341.25397 689.08146 342.53427 689.08146 381.02546 689.08146 382.30526 689.08146 382.30526 687.80115 382.30526 682.14187 382.30526 680.86206 381.02546 680.86206 350.31827 680.86206"/><path class="uuid-3ae07681-cfaa-469d-9911-6b045ad5821c" d="M212.34423,687.25143l-11.93485-24.78168c3.35574-1.21426,6.11908-3.17336,8.21484-5.84627,2.38382-3.06716,3.59859-6.72621,3.59859-10.87149,0-5.40578-1.88287-9.87011-5.61813-13.27155-3.69005-3.35574-8.57911-5.05623-14.50107-5.05623h-27.02883v61.66484h9.06533v-25.25213h17.08252l11.63103,24.50783.34904.74431h10.03725l-.89622-1.83716h0l.00051-.00047ZM191.60214,655.88022h-17.4778v-20.16544h17.47729c3.53814,0,6.39293.94195,8.47293,2.80958,2.03478,1.80666,3.0824,4.26719,3.0824,7.31861,0,3.00723-1.01765,5.37528-3.0824,7.22817-2.08,1.86763-4.9353,2.80908-8.47293,2.80908h.00051Z"/></g></svg>