<svg xmlns="http://www.w3.org/2000/svg" viewBox="0 0 400 400"><title>avatar</title><rect width="400" height="400" style="fill:#00a8e2"/><path d="M175.2941,193.14492c-.73612-2.85245-1.93231-3.12848-3.03648-3.12848h-.36805v11.50181h-7.17713V172.16564h10.67368c5.42885,0,8.46533,2.48439,8.46533,7.91325a6.557,6.557,0,0,1-5.15281,6.71706v.184c1.56424.55209,2.5764,1.38022,3.58855,5.42885l2.39239,9.20145H177.2264Zm-1.65626-8.83339a3.00927,3.00927,0,0,0,2.94446-3.12849c0-2.02431-1.01217-3.49655-3.12849-3.49655H171.5215v6.533l2.11634.092Z" style="fill:#fff"/><path d="M187.71606,172.0736h16.47058v5.79692h-9.38547v5.61289h8.9254v5.79691h-8.9254v6.257h9.84554v5.79691H187.71606Z" style="fill:#fff"/><path d="M207.95924,194.3411a13.26775,13.26775,0,0,0,6.073,1.74827c2.76043,0,3.68058-1.2882,3.68058-3.12849,0-1.9323-1.19618-2.48438-3.22051-3.40453l-1.56426-.6441c-4.41668-1.93231-5.7969-4.5087-5.7969-8.64935,0-5.61289,4.04864-8.64935,9.75354-8.64935a16.665,16.665,0,0,1,6.80907,1.19619l-.276,5.79691a12.19294,12.19294,0,0,0-5.52087-1.47224c-2.20834,0-3.49654,1.01217-3.49654,2.76044,0,1.47223.7361,2.20834,3.12849,3.40453l3.2205,1.65626c2.39238,1.19619,4.50871,3.03648,4.50871,7.36116,0,6.441-4.23268,9.66152-10.48965,9.66152a25.08191,25.08191,0,0,1-7.08512-1.10417Z" style="fill:#fff"/><path d="M228.93853,172.0736h16.47058v5.79692h-9.38549v5.61289H244.949v5.79691h-8.92542v6.257h9.84556v5.79691H228.93853V172.0736Z" style="fill:#fff"/><path d="M263.44395,195.16924H255.5307l-1.74827,6.165h-6.90108l8.92541-29.35261H263.812l8.55734,29.35261h-7.45318Zm-3.77257-17.1147h0l-2.94447,11.50181h5.24483Z" style="fill:#fff"/><path d="M285.06735,193.14492c-.7361-2.85245-1.93231-3.12848-3.03646-3.12848h-.46008v11.50181H274.3937V172.16564h10.67368c5.42885,0,8.46534,2.48439,8.46534,7.91325a6.557,6.557,0,0,1-5.15281,6.71706v.184c1.56425.55209,2.57639,1.38022,3.58855,5.42885l2.39239,9.20145h-7.36116Zm-1.65625-8.83339a3.00928,3.00928,0,0,0,2.94448-3.12849c0-2.02431-1.01217-3.49655-3.12849-3.49655h-1.93231v6.533l2.11632.092Z" style="fill:#fff"/><path d="M316.72035,200.78211a22.175,22.175,0,0,1-6.625,1.10418c-7.82123,0-13.43412-5.0608-13.43412-15.36642,0-8.64935,4.5087-14.90634,13.3421-14.90634a14.40781,14.40781,0,0,1,6.533,1.38022l-.36805,6.533a10.29405,10.29405,0,0,0-5.24484-1.65626c-4.60072,0-6.80906,3.2205-6.80906,8.9254,0,5.06079,2.57639,8.9254,7.08512,8.9254a8.76167,8.76167,0,0,0,5.15282-1.65626Z" style="fill:#fff"/><path d="M332.82288,189.46435H327.21v11.96188h-7.17711V172.07362H327.21V183.3914h5.61289V172.07362H340v29.35261h-7.17712Z" style="fill:#fff"/><path d="M165.08051,217.52876,294.7289,246.32928a105.2077,105.2077,0,1,1-39.10615-135.81335l18.49491-29.81269A140.28645,140.28645,0,1,0,200.23,340.27605c71.58724,0,130.4765-53.55243,139.21788-122.74729Z" style="fill:#fff"/></svg>