<?xml version="1.0" encoding="UTF-8"?><svg id="uuid-127d00cf-4d21-4a0b-9863-c4185ffe06b9" xmlns="http://www.w3.org/2000/svg" viewBox="0 0 800 800"><defs><style>.uuid-ee504353-1b28-49a2-838b-5b8896d26976{fill:#f0efef;}.uuid-ee504353-1b28-49a2-838b-5b8896d26976,.uuid-df1ed148-d038-48b7-a97e-8bd3035a2a38{stroke-width:0px;}.uuid-df1ed148-d038-48b7-a97e-8bd3035a2a38{fill:#000;}</style></defs><rect id="uuid-3d389929-7cbb-483b-8b3a-be69e948a0fd" class="uuid-ee504353-1b28-49a2-838b-5b8896d26976" width="800" height="800"/><g id="uuid-8db1bb46-d67c-409c-a062-3709d2ac5add"><path class="uuid-df1ed148-d038-48b7-a97e-8bd3035a2a38" d="M100,279.3867v195.74177h195.74769v-195.74177H100ZM198.03895,445.42315c-37.01924,0-68.24961-29.41108-68.24961-67.9194s31.16453-68.41174,68.24961-68.41174c21.49687,0,42.33906,10.06983,56.05401,30.56404l-15.23386,10.24996c-9.58978-11.89546-24.6253-20.98654-40.82015-20.98654-26.43886,0-48.42215,20.32593-48.42215,48.58408,0,27.10541,20.95649,48.09173,47.92367,48.09173,19.58742,0,36.5267-10.74252,44.95123-27.10541l-46.27225-14.86769v-6.11886h69.73867c0,37.8477-33.71047,67.9194-67.91919,67.9194l.00002.00044Z"/><path class="uuid-df1ed148-d038-48b7-a97e-8bd3035a2a38" d="M209.32205,495.30242l-.13293-.34163h-4.5991l-.13293.34163-9.74238,24.62129-.29104.72749h4.00452l.13293-.34163,2.56201-6.80064h11.32396l2.56201,6.80064.12657.34163h4.06781l-.28469-.72749s-9.59676-24.62129-9.59674-24.62129ZM202.36965,510.30177h0l4.40923-11.70347-.06329-.16467h.12657l-.06329.16467,4.44733,11.70347h-8.85656Z"/><path class="uuid-df1ed148-d038-48b7-a97e-8bd3035a2a38" d="M260.19869,498.08922c1.33075,0,2.64181.29083,3.89615.86466,1.26281.57849,2.33616,1.38346,3.18939,2.39289l.38184.45149.40979-.4263,1.79198-1.86352.34205-.35581-.32808-.36852c-1.19358-1.34091-2.65218-2.39204-4.33536-3.12441-1.65311-.71924-3.50245-1.0994-5.34798-1.0994-1.82563,0-3.55347.34565-5.13546,1.02763-1.5803.68221-2.9735,1.62666-4.14125,2.80755s-2.09931,2.59926-2.76923,4.21576c-.66908,1.62327-1.00818,3.36677-1.00818,5.18329,0,1.81525.33909,3.55219,1.00839,5.16277.66655,1.59935,1.5911,3.01117,2.74849,4.1965,1.15528,1.18026,2.5491,2.13085,4.1436,2.82554,1.60233.69384,3.33609,1.0452,5.15345,1.0452,1.82457,0,3.58903-.3702,5.24509-1.10045,1.65185-.72835,3.11976-1.77673,4.3633-3.1151l.34649-.37296-.35645-.36343-1.7581-1.79219-.41403-.42207-.3774.4553c-.83714,1.00985-1.88532,1.80023-3.11615,2.34908-1.23465.55287-2.53344.83312-3.8608.83312h-.29908c-1.21772-.03493-2.36368-.28448-3.41037-.74274-1.13368-.49593-2.12217-1.18342-2.93794-2.04343-.81788-.86022-1.47278-1.89801-1.94775-3.08483-.47857-1.18681-.72072-2.47524-.72072-3.83032s.24236-2.64351.7201-3.82905c.47541-1.18851,1.13052-2.22609,1.94775-3.08568h-.00021c.81216-.86001,1.79535-1.54729,2.92355-2.04406,1.13813-.50249,2.33256-.74655,3.65252-.74655h.00061Z"/><polygon class="uuid-df1ed148-d038-48b7-a97e-8bd3035a2a38" points="292.50475 494.95233 291.97157 494.95233 291.97157 495.48552 291.97157 505.96132 278.74324 505.96132 278.74324 495.48552 278.74324 494.95233 278.20984 494.95233 275.50007 494.95233 274.96688 494.95233 274.96688 495.48552 274.96688 520.10849 274.96688 520.64189 275.50007 520.64189 278.20984 520.64189 278.74324 520.64189 278.74324 520.10849 278.74324 509.45679 291.97157 509.45679 291.97157 520.10849 291.97157 520.64189 292.50475 520.64189 295.21429 520.64189 295.74769 520.64189 295.74769 520.10849 295.74769 495.48552 295.74769 494.95233 295.21429 494.95233 292.50475 494.95233"/><path class="uuid-df1ed148-d038-48b7-a97e-8bd3035a2a38" d="M166.01081,508.31591h0c-1.26725-1.11632-3.27152-1.92743-5.95715-2.41088l-3.94632-.67099c-1.54242-.24406-2.64965-.6424-3.2965-1.18512-.60388-.50906-.89789-1.20417-.89789-2.1245,0-1.10257.47307-2.00597,1.44632-2.76141,1.00034-.77893,2.31013-1.17369,3.89403-1.17369,1.35805,0,2.73579.24998,4.09533.74274,1.36292.49488,2.67271,1.20459,3.89276,2.10884l.45042.3338.31072-.46651,1.40631-2.11074.28723-.43116-.42249-.29951c-1.54898-1.09854-3.16039-1.92172-4.7896-2.44686-1.61036-.52006-3.38201-.7838-5.26457-.7838-2.60541,0-4.76758.70422-6.42684,2.09233-1.69016,1.41605-2.54699,3.25818-2.54699,5.47602,0,1.79007.58378,3.24147,1.73503,4.31398,1.11654,1.04055,2.87062,1.77778,5.21293,2.19118l3.97679.67057c1.89378.33422,3.23956.80709,3.99563,1.4044.70443.55752,1.0469,1.34133,1.0469,2.39543,0,1.24248-.54144,2.25997-1.65566,3.11023-1.14088.87228-2.61811,1.31446-4.39018,1.31446-1.51003,0-2.89729-.28004-4.12327-.83249-1.23592-.55731-2.58932-1.51956-4.02272-2.85982l-.41084-.38418-.36195.43095-1.65227,1.96808-.04424.05227-.02921.06159-.16722.35179.28003.27432c1.54601,1.44844,3.1913,2.54276,4.89098,3.25226,1.71366.71628,3.58754,1.07971,5.56895,1.07971,1.39721,0,2.7068-.19769,3.8934-.5878,1.20523-.3956,2.26081-.94657,3.13711-1.63724.88667-.7002,1.59152-1.55215,2.09487-2.5326.5061-.99017.76242-2.06628.76242-3.20019,0-1.98247-.66379-3.57251-1.97252-4.72588l.00023.00044Z"/><path class="uuid-df1ed148-d038-48b7-a97e-8bd3035a2a38" d="M243.47046,519.87946l-4.97226-10.32447c1.39806-.50588,2.54931-1.32208,3.42243-2.43566.99314-1.27783,1.49923-2.80225,1.49923-4.52925,0-2.25214-.78443-4.11206-2.3406-5.52915-1.53734-1.39806-3.5742-2.10651-6.04161-2.10651h-11.26046v25.69062h3.77677v-10.52047h7.11687l4.8459,10.21038.14542.31009h4.18169l-.37338-.76539h0l-.00002-.00019ZM234.82916,506.80968h-7.28155v-8.40127h7.28155c1.47384,0,2.6634.39243,3.52975,1.17052.84772.75268,1.28418,1.77778,1.28418,3.04906,0,1.25286-.42376,2.23943-1.28418,3.01138-.86657.77809-2.05613,1.17031-3.52975,1.17031Z"/><polygon class="uuid-df1ed148-d038-48b7-a97e-8bd3035a2a38" points="129.61683 517.21755 129.61683 509.38567 141.56605 509.38567 142.09945 509.38567 142.09945 508.85226 142.09945 506.49472 142.09945 505.96132 141.56605 505.96132 129.61683 505.96132 129.61683 498.37646 142.26688 498.37646 142.80028 498.37646 142.80028 497.84306 142.80028 495.48552 142.80028 494.95233 142.26688 494.95233 126.3741 494.95233 125.8407 494.95233 125.8407 495.48552 125.8407 520.10849 125.8407 520.64189 126.3741 520.64189 142.40997 520.64189 142.94337 520.64189 142.94337 520.10849 142.94337 517.75073 142.94337 517.21755 142.40997 517.21755 129.61683 517.21755"/><polygon class="uuid-df1ed148-d038-48b7-a97e-8bd3035a2a38" points="177.17559 517.21755 177.17559 509.38567 189.1246 509.38567 189.658 509.38567 189.658 508.85226 189.658 506.49472 189.658 505.96132 189.1246 505.96132 177.17559 505.96132 177.17559 498.37646 189.82543 498.37646 190.35883 498.37646 190.35883 497.84306 190.35883 495.48552 190.35883 494.95233 189.82543 494.95233 173.93265 494.95233 173.39925 494.95233 173.39925 495.48552 173.39925 520.10849 173.39925 520.64189 173.93265 520.64189 189.96873 520.64189 190.50192 520.64189 190.50192 520.10849 190.50192 517.75073 190.50192 517.21755 189.96873 517.21755 177.17559 517.21755"/><path class="uuid-df1ed148-d038-48b7-a97e-8bd3035a2a38" d="M119.69326,519.87946l-4.97226-10.32447c1.39806-.50588,2.54931-1.32208,3.42244-2.43566.99314-1.27783,1.49923-2.80225,1.49923-4.52925,0-2.25214-.78444-4.11206-2.34061-5.52915-1.53734-1.39806-3.5742-2.10651-6.04139-2.10651h-11.26067v25.69062h3.77677v-10.52047h7.11687l4.84569,10.21038.14541.31009h4.18169l-.37338-.76539h0l.00021-.00019ZM111.05176,506.80968h-7.28155v-8.40127h7.28134c1.47405,0,2.6634.39243,3.52997,1.17052.84772.75268,1.28418,1.77778,1.28418,3.04906,0,1.25286-.42397,2.23943-1.28418,3.01138-.86656.77809-2.05613,1.17031-3.52997,1.17031h.00021Z"/><path class="uuid-df1ed148-d038-48b7-a97e-8bd3035a2a38" d="M342.42063,310.21596c0-16.88381,12.21486-32.69341,30.8083-32.69341s30.80301,15.80981,30.80301,32.69341-12.21486,32.69341-30.80301,32.69341-30.8083-15.80981-30.8083-32.69341ZM394.15705,310.21596c0-11.7655-7.72669-23.98036-20.84027-23.98036-13.20674,0-21.01576,12.21486-21.01576,23.98036s7.80902,23.98036,21.01576,23.98036c13.11361,0,20.84027-12.21486,20.84027-23.98036Z"/><path class="uuid-df1ed148-d038-48b7-a97e-8bd3035a2a38" d="M422.52125,295.3051v8.17605c2.24683-5.21145,7.99528-9.25026,15.44806-9.25026,12.30801,0,21.19652,10.77362,21.19652,24.24896s-8.88851,24.24896-21.19652,24.24896c-7.36515,0-13.02598-4.03881-15.17947-9.25026v24.70362h-9.61179v-62.87707h9.34339-.00019ZM436.35281,334.55805c7.99528,0,13.11361-7.54592,13.11361-16.07821s-5.11833-16.07821-13.11361-16.07821-13.56297,7.27731-13.56297,16.07821,5.56768,16.07821,13.56297,16.07821Z"/><path class="uuid-df1ed148-d038-48b7-a97e-8bd3035a2a38" d="M486.40671,294.23089c14.37387,0,21.6514,10.41739,21.6514,23.35023v3.05245h-34.67186c.44936,8.08842,5.11833,14.55484,13.46982,14.55484,6.29096,0,9.79275-3.14558,11.49688-7.27732h8.98715c-2.33997,8.80089-10.15429,14.81794-20.48406,14.81794-14.4562,0-22.81302-10.77363-22.81302-24.24896,0-13.74373,9.34339-24.24896,22.36385-24.24896l-.00016-.00022ZM498.98331,313.53701c-.8056-7.09105-5.29906-12.21486-12.66422-12.21486-7.18419,0-11.58473,5.39221-12.66422,12.21486h25.32847-.00003Z"/><path class="uuid-df1ed148-d038-48b7-a97e-8bd3035a2a38" d="M516.00957,295.3051h9.25577v7.45829c2.06586-5.21145,6.82265-8.53229,13.91921-8.53229,10.9599,0,16.79617,7.63355,16.79617,19.13065v28.29307h-9.61179v-27.0381c0-7.09655-3.05243-11.94626-9.69964-11.94626s-11.04752,4.49347-11.04752,12.12723v26.85734h-9.61179v-46.34993h-.00042Z"/><path class="uuid-df1ed148-d038-48b7-a97e-8bd3035a2a38" d="M342.3275,412.48316h9.61179c1.6165,7.18969,7.00342,12.308,16.25896,12.308,9.0693,0,14.18759-4.76208,14.18759-11.31612,0-5.03069-3.32083-8.35703-9.88041-9.61179l-13.56297-2.78384c-9.69962-2.06587-14.81795-7.00892-14.81795-15.99057,0-10.41739,9.34339-17.78254,23.08162-17.78254,13.47534,0,21.91979,7.18418,23.17475,18.76891h-9.51864c-1.26049-6.37329-5.92942-10.86676-13.83136-10.86676-7.90766,0-13.29436,3.41397-13.29436,9.34339,0,4.48818,2.15371,6.82794,8.08292,7.99529l14.01233,2.78384c10.51054,2.06587,16.16585,7.90215,16.16585,17.33318,0,11.85862-10.149,20.02938-23.89273,20.02938-14.54934,0-23.79959-8.08292-25.77783-20.21015l.00044-.00021Z"/><path class="uuid-df1ed148-d038-48b7-a97e-8bd3035a2a38" d="M398.06421,408.26358c0-13.382,9.61179-24.24896,23.08713-24.24896s23.08161,10.86676,23.08161,24.24896-9.61179,24.24897-23.08161,24.24897-23.08713-10.86677-23.08713-24.24897ZM434.62097,408.26358c0-8.17605-5.03067-16.16584-13.46982-16.16584-8.44464,0-13.47534,7.98978-13.47534,16.16584s5.03067,16.0782,13.47534,16.0782c8.43915,0,13.46982-7.90215,13.46982-16.0782Z"/><path class="uuid-df1ed148-d038-48b7-a97e-8bd3035a2a38" d="M451.37331,385.08883h9.61179v27.21907c0,7.09104,2.96461,11.94625,9.61179,11.94625s10.77913-4.58131,10.77913-12.12723v-27.03809h9.69964v46.3495h-9.25025v-7.36515c-1.97824,4.93756-6.64717,8.43915-13.83136,8.43915-10.87227,0-16.6207-7.63355-16.6207-19.13065v-28.29306l-.00003.00022Z"/><path class="uuid-df1ed148-d038-48b7-a97e-8bd3035a2a38" d="M501.47673,385.08883h9.16243v10.77913c1.52888-6.82794,5.92942-11.31612,13.83136-11.31612,1.44122,0,2.78384.08763,3.68259.35624v8.89403c-.98637-.18076-1.79747-.18076-2.96461-.18076-8.5323,0-14.09995,5.92942-14.09995,16.43994v21.37729h-9.61179v-46.34951l-.00003-.00022Z"/><path class="uuid-df1ed148-d038-48b7-a97e-8bd3035a2a38" d="M553.21867,384.01483c11.85861,0,19.40454,7.27202,21.10889,16.97144h-9.34339c-1.6165-5.03069-5.38672-8.80089-11.7655-8.80089-8.35153,0-13.29435,7.72668-13.29435,16.07821s4.94285,15.99058,13.29435,15.99058c6.37878,0,10.149-3.68808,11.7655-8.71305h9.34339c-1.70435,9.69962-9.25025,16.97143-21.10889,16.97143-13.91921,0-22.99398-11.31612-22.99398-24.24896s9.0748-24.24896,22.99398-24.24896v.0002Z"/><path class="uuid-df1ed148-d038-48b7-a97e-8bd3035a2a38" d="M601.00392,384.01483c14.36857,0,21.64587,10.41739,21.64587,23.35023v3.05245h-34.67186c.44936,8.08842,5.11833,14.55484,13.46982,14.55484,6.29096,0,9.79275-3.14558,11.49688-7.27732h8.98715c-2.33997,8.80089-10.15429,14.81795-20.48406,14.81795-14.4562,0-22.81302-10.77362-22.81302-24.24896,0-13.74373,9.34339-24.24896,22.36915-24.24896l.00006-.00022ZM613.57502,403.32074c-.8056-7.09105-5.29906-12.21487-12.66422-12.21487-7.18419,0-11.58473,5.39221-12.66422,12.21487h25.32847-.00003Z"/><path class="uuid-df1ed148-d038-48b7-a97e-8bd3035a2a38" d="M342.3275,502.2671h9.61179c1.6165,7.18968,7.00342,12.30799,16.25896,12.30799,9.0693,0,14.18759-4.76208,14.18759-11.31612,0-5.03069-3.32083-8.35702-9.88041-9.61179l-13.56297-2.78384c-9.69962-2.06586-14.81795-7.00892-14.81795-15.99057,0-10.41739,9.34339-17.78254,23.08162-17.78254,13.47534,0,21.91979,7.18417,23.17475,18.76892h-9.51864c-1.26049-6.37329-5.92942-10.86677-13.83136-10.86677-7.90766,0-13.29436,3.41397-13.29436,9.34339,0,4.48818,2.15371,6.82794,8.08292,7.99528l14.01233,2.78384c10.51054,2.06586,16.16585,7.90215,16.16585,17.33317,0,11.85863-10.149,20.02939-23.89273,20.02939-14.54934,0-23.79959-8.08292-25.77783-20.21016l.00044-.00019Z"/><path class="uuid-df1ed148-d038-48b7-a97e-8bd3035a2a38" d="M398.06421,498.04752c0-13.38199,9.61179-24.24896,23.08713-24.24896s23.08161,10.86677,23.08161,24.24896-9.61179,24.24896-23.08161,24.24896-23.08713-10.86677-23.08713-24.24896ZM434.62097,498.04752c0-8.17605-5.03067-16.16583-13.46982-16.16583-8.44464,0-13.47534,7.98978-13.47534,16.16583s5.03067,16.07821,13.47534,16.07821c8.43915,0,13.46982-7.90215,13.46982-16.07821Z"/><path class="uuid-df1ed148-d038-48b7-a97e-8bd3035a2a38" d="M453.74061,482.78022h-7.45278v-7.90766h7.45278v-3.68258c0-10.59837,4.84971-16.6152,15.89745-16.6152,2.4276,0,4.66893.18077,5.84157.537v7.54592c-.89875-.2686-2.33997-.35623-4.04433-.35623-5.39221,0-8.08291,2.95911-8.08291,8.53228v4.0388h17.01525v7.90766h-17.01525v38.44206h-9.61179v-38.44206Z"/><path class="uuid-df1ed148-d038-48b7-a97e-8bd3035a2a38" d="M481.70009,506.39905v-23.61862h-8.17605v-7.90766h8.17605v-12.3025h9.6063v12.3025h12.39563v7.90766h-12.39563v23.61862c0,4.67444,2.24683,7.18968,6.91579,7.18968,2.24683,0,4.22507-.44938,5.57318-.81111v7.90215c-1.6165.72326-4.76208,1.0795-7.90766,1.0795-9.43102,0-14.18761-5.21144-14.18761-15.36044v.00021Z"/><path class="uuid-df1ed148-d038-48b7-a97e-8bd3035a2a38" d="M516.69515,474.87277l8.17056,34.13465,11.31614-34.13465h9.16243l11.22848,34.13465,8.2639-34.13465h9.43102l-13.20123,46.34951h-8.53779l-11.7655-36.46912-11.7655,36.46912h-8.5323l-13.20123-46.34951h9.43102Z"/><path class="uuid-df1ed148-d038-48b7-a97e-8bd3035a2a38" d="M594.41197,493.19782l13.02598-.89873v-1.70434c0-5.84157-3.14558-9.43102-9.43102-9.43102-5.74846,0-9.25577,3.2332-9.97352,7.45278h-9.3379c1.43573-8.80089,8.61992-14.81795,19.21828-14.81795,12.48874,0,19.13065,6.82265,19.13065,17.1522v30.2713h-9.3379v-6.91579c-1.79747,4.40035-7.00891,7.98978-14.37387,7.98978-9.96803,0-16.34681-5.83608-16.34681-14.54934,0-8.80089,6.11019-13.74374,17.4263-14.54934l-.00019.00045ZM595.49149,515.47384c7.00342,0,11.94627-4.67444,11.94627-12.75736v-3.86335l-10.51054.72326c-6.7348.44938-10.59835,2.87147-10.59835,7.90215,0,4.76208,3.14558,7.99528,9.16243,7.99528l.00019.00002Z"/><path class="uuid-df1ed148-d038-48b7-a97e-8bd3035a2a38" d="M627.19322,474.87277h9.16243v10.77913c1.52888-6.82794,5.92945-11.31612,13.83136-11.31612,1.44126,0,2.78381.08762,3.68259.35623v8.89402c-.98637-.18077-1.79195-.18077-2.96461-.18077-8.5323,0-14.09998,5.92942-14.09998,16.43994v21.37729h-9.61179v-46.3497Z"/><path class="uuid-df1ed148-d038-48b7-a97e-8bd3035a2a38" d="M678.3486,473.79856c14.37387,0,21.6514,10.41739,21.6514,23.35023v3.05245h-34.67186c.44939,8.08841,5.11829,14.55483,13.46985,14.55483,6.29096,0,9.79275-3.14558,11.49691-7.27732h8.98718c-2.33997,8.80089-10.15429,14.81795-20.48403,14.81795-14.45623,0-22.81302-10.77362-22.81302-24.24896,0-13.74374,9.34336-24.24896,22.36389-24.24896l-.00032-.00021ZM690.92523,493.10448c-.80564-7.09104-5.2991-12.21486-12.66422-12.21486-7.18419,0-11.58476,5.39221-12.66422,12.21486h25.32843Z"/></g></svg>