<?xml version="1.0" encoding="UTF-8"?><svg id="uuid-3bcf3455-e24f-46cc-9373-df52392747b9" xmlns="http://www.w3.org/2000/svg" viewBox="0 0 880 360"><defs><style>.uuid-20c222bf-6f2a-4bb8-b9f5-853da9ebdee3{fill:#000;stroke-width:0px;}</style></defs><path class="uuid-20c222bf-6f2a-4bb8-b9f5-853da9ebdee3" d="M1,3.50254v286.43546h286.44412V3.50254H1ZM144.46366,246.46921c-54.17149,0-99.87193-43.03822-99.87193-99.38873s45.6041-100.10918,99.87193-100.10918c31.45708,0,61.95616,14.73552,82.0257,44.72538l-22.29222,14.99911c-14.03304-17.40702-36.03503-30.71031-59.73348-30.71031-38.68887,0-70.85775,29.74362-70.85775,71.0947,0,39.66425,30.66633,70.37423,70.12831,70.37423,28.66293,0,53.45073-15.71988,65.77864-39.66425l-67.71173-21.75638v-8.95394h102.05092c0,55.3838-49.32965,99.38873-99.38842,99.38873l.00002.00064Z"/><path class="uuid-20c222bf-6f2a-4bb8-b9f5-853da9ebdee3" d="M160.9746,319.45921l-.19452-.49992h-6.73001l-.19452.49992-14.25635,36.02916-.42589,1.06456h5.85995l.19452-.49992,3.74908-9.9516h16.57072l3.74908,9.9516.18522.49992h5.95256l-.41659-1.06456s-14.04326-36.02916-14.04324-36.02916ZM150.80092,341.40825h0l6.45217-17.12608-.09261-.24097h.18522l-.09261.24097,6.50793,17.12608h-12.9601Z"/><path class="uuid-20c222bf-6f2a-4bb8-b9f5-853da9ebdee3" d="M235.42408,323.53722c1.94733,0,3.86585.42557,5.70136,1.26529,1.84791.84652,3.41859,2.02446,4.66714,3.5016l.55876.66068.59967-.62382,2.62226-2.72695.50053-.52067-.48009-.53926c-1.74661-1.96219-3.88102-3.50035-6.34408-4.57205-2.41906-1.05249-5.12525-1.60879-7.82588-1.60879-2.67151,0-5.19991.5058-7.51489,1.50377-2.3125.9983-4.35121,2.38035-6.06003,4.10838s-3.07199,3.80358-4.0523,6.16907c-.97909,2.37539-1.4753,4.92671-1.4753,7.58489,0,2.65631.49621,5.19804,1.4756,7.55485.97538,2.34039,2.32831,4.40635,4.02196,6.14088,1.69055,1.72711,3.73019,3.11814,6.06346,4.13471,2.34474,1.01531,4.88181,1.52948,7.54121,1.52948,2.66995,0,5.25194-.54172,7.67532-1.61033,2.41721-1.06581,4.56524-2.59995,6.38496-4.55844l.50703-.54576-.52161-.53182-2.57268-2.62257-.60586-.61763-.55226.66626c-1.22502,1.47775-2.75885,2.63434-4.55997,3.43749-1.8067.80904-3.70726,1.21913-5.64963,1.21913h-.43765c-1.78193-.05111-3.45885-.41629-4.99051-1.08687-1.65896-.72571-3.10545-1.73174-4.29918-2.99022-1.19683-1.25879-2.15517-2.77742-2.85021-4.51413-.70031-1.7367-1.05466-3.6221-1.05466-5.60504s.35466-3.86833,1.05374-5.60317c.69568-1.73919,1.65433-3.25751,2.85021-4.51538h-.00031c1.18846-1.25848,2.6272-2.2642,4.27812-2.99114,1.66546-.73531,3.41332-1.09245,5.34486-1.09245h.0009Z"/><polygon class="uuid-20c222bf-6f2a-4bb8-b9f5-853da9ebdee3" points="282.69862 318.94691 281.91839 318.94691 281.91839 319.72714 281.91839 335.05673 262.56093 335.05673 262.56093 319.72714 262.56093 318.94691 261.7804 318.94691 257.8151 318.94691 257.03487 318.94691 257.03487 319.72714 257.03487 355.75875 257.03487 356.53929 257.8151 356.53929 261.7804 356.53929 262.56093 356.53929 262.56093 355.75875 262.56093 340.17177 281.91839 340.17177 281.91839 355.75875 281.91839 356.53929 282.69862 356.53929 286.66358 356.53929 287.44412 356.53929 287.44412 355.75875 287.44412 319.72714 287.44412 318.94691 286.66358 318.94691 282.69862 318.94691"/><path class="uuid-20c222bf-6f2a-4bb8-b9f5-853da9ebdee3" d="M97.59582,338.50228h0c-1.85441-1.63355-4.78733-2.82048-8.71729-3.52793l-5.77478-.98188c-2.25707-.35714-3.87731-.94005-4.82387-1.73422-.88368-.74493-1.31391-1.76211-1.31391-3.10885,0-1.61342.69226-2.9354,2.11645-4.04087,1.46383-1.13983,3.38049-1.71749,5.69827-1.71749,1.98728,0,4.00337.36581,5.99283,1.08687,1.99441.72418,3.91107,1.76272,5.69641,3.08593l.65912.48846.45469-.68266,2.05791-3.08872.42031-.63093-.61824-.43829c-2.26667-1.60754-4.62471-2.81211-7.00877-3.58058-2.35649-.76102-4.94901-1.14696-7.70383-1.14696-3.81258,0-6.97656,1.03051-9.40461,3.06178-2.47327,2.07215-3.72709,4.76781-3.72709,8.01325,0,2.61947.85426,4.74335,2.53893,6.31279,1.63387,1.52268,4.20068,2.60149,7.62825,3.20642l5.81937.98126c2.77123.48907,4.74056,1.18104,5.84694,2.05511,1.03081.81584,1.53197,1.96281,1.53197,3.50531,0,1.81816-.79231,3.30709-2.42278,4.5513-1.66949,1.27644-3.83116,1.92349-6.4243,1.92349-2.20968,0-4.2397-.40979-6.03372-1.21821-1.80857-.81554-3.78904-2.22363-5.88659-4.18487l-.6012-.56219-.52965.63062-2.41782,2.87996-.06474.07649-.04274.09013-.2447.51478.40978.40142c2.26233,2.11955,4.66993,3.7209,7.15714,4.75914,2.50765,1.04816,5.24977,1.57998,8.14923,1.57998,2.04458,0,3.96094-.28929,5.69734-.86015,1.76366-.57889,3.30832-1.38514,4.59064-2.39583,1.2975-1.02463,2.32893-2.27131,3.06549-3.70604.74059-1.44895,1.11568-3.02366,1.11568-4.68295,0-2.90101-.97134-5.22777-2.88646-6.91553l.00033.00064Z"/><path class="uuid-20c222bf-6f2a-4bb8-b9f5-853da9ebdee3" d="M210.94511,355.42362l-7.27607-15.10814c2.04582-.74027,3.73049-1.93464,5.00816-3.56418,1.4533-1.86989,2.19387-4.10063,2.19387-6.6278,0-3.29563-1.14789-6.01731-3.42508-8.09099-2.24964-2.04582-5.23025-3.08253-8.84088-3.08253h-16.47781v37.59394h5.52668v-15.39495h10.41436l7.09117,14.94119.2128.45377h6.11921l-.54638-1.12002h0l-.00002-.00028ZM198.30001,336.29817h-10.65534v-12.29385h10.65534c2.15671,0,3.89744.57426,5.1652,1.71286,1.2405,1.10143,1.87918,2.60149,1.87918,4.46178,0,1.83336-.62011,3.27703-1.87918,4.40665-1.26807,1.1386-3.0088,1.71255-5.1652,1.71255Z"/><polygon class="uuid-20c222bf-6f2a-4bb8-b9f5-853da9ebdee3" points="44.3393 351.52834 44.3393 340.0677 61.82499 340.0677 62.60553 340.0677 62.60553 339.28714 62.60553 335.83727 62.60553 335.05673 61.82499 335.05673 44.3393 335.05673 44.3393 323.95755 62.85054 323.95755 63.63108 323.95755 63.63108 323.17701 63.63108 319.72714 63.63108 318.94691 62.85054 318.94691 39.5941 318.94691 38.81355 318.94691 38.81355 319.72714 38.81355 355.75875 38.81355 356.53929 39.5941 356.53929 63.05992 356.53929 63.84046 356.53929 63.84046 355.75875 63.84046 352.30857 63.84046 351.52834 63.05992 351.52834 44.3393 351.52834"/><polygon class="uuid-20c222bf-6f2a-4bb8-b9f5-853da9ebdee3" points="113.93362 351.52834 113.93362 340.0677 131.419 340.0677 132.19954 340.0677 132.19954 339.28714 132.19954 335.83727 132.19954 335.05673 131.419 335.05673 113.93362 335.05673 113.93362 323.95755 132.44455 323.95755 133.22509 323.95755 133.22509 323.17701 133.22509 319.72714 133.22509 318.94691 132.44455 318.94691 109.18811 318.94691 108.40757 318.94691 108.40757 319.72714 108.40757 355.75875 108.40757 356.53929 109.18811 356.53929 132.65424 356.53929 133.43447 356.53929 133.43447 355.75875 133.43447 352.30857 133.43447 351.52834 132.65424 351.52834 113.93362 351.52834"/><path class="uuid-20c222bf-6f2a-4bb8-b9f5-853da9ebdee3" d="M29.81781,355.42362l-7.27608-15.10814c2.04583-.74027,3.7305-1.93464,5.00817-3.56418,1.4533-1.86989,2.19388-4.10063,2.19388-6.6278,0-3.29563-1.14789-6.01731-3.42509-8.09099-2.24963-2.04582-5.23025-3.08253-8.84057-3.08253H1v37.59394h5.52667v-15.39495h10.41435l7.09085,14.94119.21279.45377h6.1192l-.54638-1.12002h0l.00031-.00028ZM17.1724,336.29817H6.51707v-12.29385h10.65502c2.15702,0,3.89744.57426,5.16552,1.71286,1.2405,1.10143,1.87919,2.60149,1.87919,4.46178,0,1.83336-.62041,3.27703-1.87919,4.40665-1.26807,1.1386-3.00881,1.71255-5.16552,1.71255h.00031Z"/><path class="uuid-20c222bf-6f2a-4bb8-b9f5-853da9ebdee3" d="M355.74219,48.61602c0-24.70664,17.87441-47.84135,45.08282-47.84135s45.07506,23.13502,45.07506,47.84135-17.87441,47.84135-45.07506,47.84135-45.08282-23.13502-45.08282-47.84135ZM431.44982,48.61602c0-17.21684-11.30673-35.09126-30.49626-35.09126-19.32586,0-30.75306,17.87442-30.75306,35.09126s11.4272,35.09126,30.75306,35.09126c19.18958,0,30.49626-17.87442,30.49626-35.09126Z"/><path class="uuid-20c222bf-6f2a-4bb8-b9f5-853da9ebdee3" d="M472.9561,26.79646v11.96429c3.28786-7.62608,11.69976-13.53621,22.60566-13.53621,18.01071,0,31.01757,15.7654,31.01757,35.48431s-13.00685,35.48432-31.01757,35.48432c-10.77767,0-19.06136-5.91013-22.21263-13.53622v36.14963h-14.06525V26.79646h13.6725-.00028ZM493.19628,84.23662c11.69976,0,19.18958-11.0422,19.18958-23.52777s-7.48982-23.52777-19.18958-23.52777-19.84714,10.64914-19.84714,23.52777,8.14738,23.52777,19.84714,23.52777Z"/><path class="uuid-20c222bf-6f2a-4bb8-b9f5-853da9ebdee3" d="M566.44182,25.22453c21.03376,0,31.68321,15.24411,31.68321,34.16917v4.46675h-50.73649c.65756,11.83606,7.48982,21.29858,19.71084,21.29858,9.20577,0,14.33006-4.60303,16.82377-10.64914h13.15119c-3.42416,12.87864-14.85911,21.68359-29.97501,21.68359-21.15423,0-33.38305-15.76541-33.38305-35.48432,0-20.11166,13.6725-35.48432,32.72577-35.48432l-.00024-.00032ZM584.84557,53.47582c-1.17887-10.37656-7.7543-17.87442-18.53197-17.87442-10.51286,0-16.95232,7.8906-18.53197,17.87442h37.06399-.00005Z"/><path class="uuid-20c222bf-6f2a-4bb8-b9f5-853da9ebdee3" d="M609.76066,26.79646h13.54427v10.91396c3.02305-7.62608,9.98381-12.48558,20.36845-12.48558,16.03798,0,24.57839,11.17042,24.57839,27.99452v41.40219h-14.06525v-39.56575c0-10.38462-4.46672-17.48136-14.1938-17.48136s-16.1662,6.57545-16.1662,17.74619v39.30123h-14.06525V26.79646h-.00061Z"/><path class="uuid-20c222bf-6f2a-4bb8-b9f5-853da9ebdee3" d="M355.60591,198.26702h14.06525c2.36548,10.52091,10.24834,18.0107,23.79228,18.0107,13.2714,0,20.76117-6.96851,20.76117-16.55926,0-7.36157-4.85947-12.22911-14.45833-14.06525l-19.84714-4.07369c-14.19378-3.02306-21.68359-10.25638-21.68359-23.39954,0-15.24411,13.6725-26.02179,33.77611-26.02179,19.71892,0,32.07596,10.51285,33.91239,27.46517h-13.92894c-1.84451-9.32625-8.67672-15.90169-20.23989-15.90169-11.57154,0-19.45408,4.99578-19.45408,13.6725,0,6.5677,3.1516,9.99156,11.82801,11.69978l20.5047,4.07369c15.38042,3.02306,23.65602,11.56348,23.65602,25.36421,0,17.35312-14.85136,29.30966-34.96303,29.30966-21.29054,0-34.82673-11.82801-37.72155-29.57419l.00064-.00031Z"/><path class="uuid-20c222bf-6f2a-4bb8-b9f5-853da9ebdee3" d="M437.1673,192.09237c0-19.58232,14.06525-35.48432,33.78417-35.48432s33.77609,15.90169,33.77609,35.48432-14.06525,35.48433-33.77609,35.48433-33.78417-15.9017-33.78417-35.48433ZM490.66202,192.09237c0-11.96429-7.36155-23.65601-19.71084-23.65601-12.35733,0-19.71892,11.69172-19.71892,23.65601s7.36155,23.52776,19.71892,23.52776c12.34929,0,19.71084-11.56348,19.71084-23.52776Z"/><path class="uuid-20c222bf-6f2a-4bb8-b9f5-853da9ebdee3" d="M515.17628,158.17998h14.06525v39.83058c0,10.37656,4.33822,17.48135,14.06525,17.48135s15.77345-6.70398,15.77345-17.74619v-39.56574h14.1938v67.82477h-13.53619v-10.77767c-2.89482,7.22529-9.72703,12.34929-20.23989,12.34929-15.90976,0-24.32162-11.17042-24.32162-27.99452v-41.40218l-.00005.00032Z"/><path class="uuid-20c222bf-6f2a-4bb8-b9f5-853da9ebdee3" d="M588.49428,158.17998h13.40769v15.77345c2.23726-9.99156,8.67672-16.55926,20.23989-16.55926,2.10899,0,4.07369.12823,5.38886.52129v13.01492c-1.44339-.26452-2.6303-.26452-4.33822-.26452-12.4856,0-20.63293,8.67672-20.63293,24.05711v31.2821h-14.06525v-67.82478l-.00005-.00032Z"/><path class="uuid-20c222bf-6f2a-4bb8-b9f5-853da9ebdee3" d="M664.20999,156.60836c17.35311,0,28.39531,10.64139,30.88934,24.83488h-13.6725c-2.36548-7.36157-7.88257-12.87863-17.21685-12.87863-12.22107,0-19.45406,11.30671-19.45406,23.52777s7.23304,23.39955,19.45406,23.39955c9.33428,0,14.85136-5.3969,17.21685-12.7501h13.6725c-2.49404,14.19378-13.53619,24.83486-30.88934,24.83486-20.36845,0-33.64786-16.55926-33.64786-35.48432s13.27946-35.48432,33.64786-35.48432v.0003Z"/><path class="uuid-20c222bf-6f2a-4bb8-b9f5-853da9ebdee3" d="M734.13573,156.60836c21.02601,0,31.67513,15.24411,31.67513,34.16917v4.46675h-50.73649c.65756,11.83606,7.48982,21.29858,19.71084,21.29858,9.20577,0,14.33006-4.60303,16.82377-10.64914h13.15119c-3.42416,12.87863-14.85911,21.68359-29.97501,21.68359-21.15423,0-33.38305-15.7654-33.38305-35.48432,0-20.11166,13.6725-35.48432,32.73352-35.48432l.00009-.00032ZM752.53145,184.85936c-1.17887-10.37657-7.7543-17.87442-18.53197-17.87442-10.51286,0-16.95232,7.8906-18.53197,17.87442h37.06399-.00005Z"/><path class="uuid-20c222bf-6f2a-4bb8-b9f5-853da9ebdee3" d="M355.60591,329.65085h14.06525c2.36548,10.5209,10.24834,18.01069,23.79228,18.01069,13.2714,0,20.76117-6.96851,20.76117-16.55926,0-7.36157-4.85947-12.2291-14.45833-14.06525l-19.84714-4.07369c-14.19378-3.02305-21.68359-10.25639-21.68359-23.39953,0-15.24411,13.6725-26.02179,33.77611-26.02179,19.71892,0,32.07596,10.51284,33.91239,27.46518h-13.92894c-1.84451-9.32625-8.67672-15.9017-20.23989-15.9017-11.57154,0-19.45408,4.99578-19.45408,13.6725,0,6.5677,3.1516,9.99156,11.82801,11.69976l20.5047,4.07369c15.38042,3.02305,23.65602,11.56348,23.65602,25.3642,0,17.35313-14.85136,29.30967-34.96303,29.30967-21.29054,0-34.82673-11.82801-37.72155-29.5742l.00064-.00028Z"/><path class="uuid-20c222bf-6f2a-4bb8-b9f5-853da9ebdee3" d="M437.1673,323.47621c0-19.58231,14.06525-35.48432,33.78417-35.48432s33.77609,15.9017,33.77609,35.48432-14.06525,35.48432-33.77609,35.48432-33.78417-15.9017-33.78417-35.48432ZM490.66202,323.47621c0-11.96429-7.36155-23.656-19.71084-23.656-12.35733,0-19.71892,11.69171-19.71892,23.656s7.36155,23.52777,19.71892,23.52777c12.34929,0,19.71084-11.56348,19.71084-23.52777Z"/><path class="uuid-20c222bf-6f2a-4bb8-b9f5-853da9ebdee3" d="M518.64043,301.13505h-10.9059v-11.57154h10.9059v-5.38884c0-15.50895,7.09674-24.31358,23.26327-24.31358,3.55239,0,6.83221.26453,8.54816.78581v11.0422c-1.31517-.39306-3.42416-.52128-5.9182-.52128-7.8906,0-11.82799,4.33016-11.82799,12.48557v5.91012h24.89898v11.57154h-24.89898v56.25355h-14.06525v-56.25355Z"/><path class="uuid-20c222bf-6f2a-4bb8-b9f5-853da9ebdee3" d="M559.55446,335.69728v-34.56192h-11.96429v-11.57154h11.96429v-18.00266h14.05721v18.00266h18.13894v11.57154h-18.13894v34.56192c0,6.84027,3.28786,10.5209,10.12011,10.5209,3.28786,0,6.18268-.65759,8.15541-1.18692v11.56348c-2.36548,1.05837-6.96851,1.57968-11.57154,1.57968-13.80072,0-20.7612-7.62607-20.7612-22.47744v.00031Z"/><path class="uuid-20c222bf-6f2a-4bb8-b9f5-853da9ebdee3" d="M610.7639,289.56382l11.95626,49.95037,16.55929-49.95037h13.40769l16.43102,49.95037,12.09285-49.95037h13.80072l-19.3178,67.82478h-12.49363l-17.21685-53.36648-17.21685,53.36648h-12.4856l-19.3178-67.82478h13.80072Z"/><path class="uuid-20c222bf-6f2a-4bb8-b9f5-853da9ebdee3" d="M724.48952,316.37947l19.06136-1.31515v-2.49401c0-8.54816-4.60303-13.80072-13.80072-13.80072-8.41191,0-13.54427,4.73125-14.59459,10.9059h-13.66446c2.10096-12.87863,12.61382-21.68359,28.12274-21.68359,18.27519,0,27.99452,9.98381,27.99452,25.09939v44.29701h-13.66446v-10.12011c-2.6303,6.43917-10.25637,11.69171-21.03376,11.69171-14.58655,0-23.92083-8.54013-23.92083-21.29054,0-12.87863,8.94125-20.11167,25.50048-21.29054l-.00028.00066ZM726.06922,348.97671c10.24834,0,17.48138-6.84027,17.48138-18.66828v-5.65336l-15.38042,1.05837c-9.85525.65759-15.50893,4.20191-15.50893,11.56348,0,6.96851,4.60303,11.69976,13.40769,11.69976l.00028.00002Z"/><path class="uuid-20c222bf-6f2a-4bb8-b9f5-853da9ebdee3" d="M772.45941,289.56382h13.40769v15.77345c2.23726-9.99156,8.67677-16.55926,20.23989-16.55926,2.10904,0,4.07364.12822,5.38886.52128v13.01491c-1.44339-.26453-2.62221-.26453-4.33822-.26453-12.4856,0-20.63298,8.67672-20.63298,24.05711v31.2821h-14.06525v-67.82507Z"/><path class="uuid-20c222bf-6f2a-4bb8-b9f5-853da9ebdee3" d="M847.31679,287.99189c21.03376,0,31.68321,15.24411,31.68321,34.16917v4.46675h-50.73649c.65761,11.83605,7.48977,21.29857,19.71089,21.29857,9.20577,0,14.33006-4.60303,16.82381-10.64914h13.15124c-3.42416,12.87863-14.85911,21.68359-29.97496,21.68359-21.15428,0-33.38305-15.7654-33.38305-35.48432,0-20.11167,13.67245-35.48432,32.72582-35.48432l-.00047-.00031ZM865.72058,316.24288c-1.17891-10.37656-7.75434-17.87441-18.53197-17.87441-10.51286,0-16.95237,7.8906-18.53197,17.87441h37.06394Z"/></svg>